<svg width="576" height="332" viewBox="0 0 576 332" fill="none" xmlns="http://www.w3.org/2000/svg">
<g clip-path="url(#clip0_2168_16288)">
<path opacity="0.5" d="M51.3375 304.164C136.403 388.715 315.546 391.282 393.65 349.462C495.146 295.117 562.536 121.818 494.613 38.9884C455.924 -8.16024 376.381 -20.8557 287.514 62.2197C205.005 139.383 175.092 83.2756 102.724 92.9834C11.1648 105.266 -21.312 231.908 51.3375 304.164Z" fill="#E7E4F3"/>
<path d="M486.48 239.87L485.9 234.1V234H398.37V234.08L397.9 239.89L390.44 331.18H396.44L402.15 261.24L420.24 240H461.36L482.25 257.78L484.64 281.49L487.1 305.81L489.66 331.16H495.66L486.48 239.87ZM402.92 252.15L403.36 246.74L403.91 239.99H413.26L402.92 252.15ZM476.92 246.27L469.56 240H480.46L481.46 250.15L476.92 246.27Z" fill="#504EA0"/>
<path d="M482.32 239.87L481.74 234.06V234H394.21V234.08L393.74 239.89L386.28 331.18H392.28L398 261.22L416.08 240H457.2L478.09 257.78L479.82 275L480.13 278L485.25 328.72L485.5 331.19H491.5L482.32 239.87ZM476.93 246.27L477.32 250.14L465.4 240H476.3L476.93 246.27ZM399.75 240H409.1L403.36 246.75L398.76 252.16L399.75 240Z" fill="#2A2135"/>
<path d="M216.47 331.16H218.19H221.09L217.96 301.3L217.85 300.29L214.73 300.3L213.23 300.31L187.11 300.41L181.08 300.44L155.09 300.54L155.01 301.3L151.77 331.16L152.62 331.94L152.64 331.96H157.26L157.35 331.16L158.02 324.96L158.03 324.87L158.96 316.28L160.07 306.07L166.89 306.04L172.67 306.02H172.85L178.35 306L181.64 305.98L187.67 305.96L208.24 305.88L212.86 305.86L215.52 331.16H216.47Z" fill="#504EA0"/>
<path d="M213.34 301.3L213.23 300.3L187.1 300.4H181.1L150.49 300.52L150.42 301.21L147.17 331.14H151.79L152.64 331.92V331.7L153.06 331.17L158 324.87L161.76 320.1L172.85 306H178.35H181.62H187.62L208.2 305.92L210.86 331.2H216.43L213.34 301.3ZM155.45 306.07L153.59 323.22L159 316.28L166.89 306L155.45 306.07Z" fill="#2A2135"/>
<path d="M178.38 305.96L178.37 305.98L178.35 306L158 331.16L157.35 331.96H152.61L152.65 331.91L153.23 331.16L158.02 324.96L161.79 320.1L172.67 306.02L172.72 305.96H178.38Z" fill="#504EA0"/>
<path d="M135.93 125.23H116C113.175 125.234 110.387 125.879 107.848 127.118C105.309 128.356 103.084 130.155 101.341 132.378C99.5978 134.601 98.3825 137.192 97.7865 139.953C97.1904 142.715 97.2292 145.576 97.8999 148.32L131.24 284.93C132.382 289.6 135.059 293.752 138.841 296.72C142.623 299.688 147.292 301.301 152.1 301.3H309.93C309.93 301.3 303 259.71 303 257.63C303 255.55 135.93 125.23 135.93 125.23Z" fill="#37307D"/>
<path d="M359.47 269.18C358.25 274.86 352.47 302.24 346.35 331.18H292.35C295.48 304.49 298.25 282.92 299.35 279.99C299.35 279.99 297.81 278.75 299.35 276.29L264 274.73L228.56 229.44L254.14 229.74L315.45 230.67C315.45 230.67 357.31 243.61 361 247C364.69 250.39 362.24 256.24 359.47 269.18Z" fill="#1D1526"/>
<path style="mix-blend-mode:multiply" d="M319.34 281.12C317.34 285.46 310.98 313.28 306.75 331.12H292.4C295.53 304.43 298.3 282.86 299.4 279.93C299.4 279.93 297.86 278.69 299.4 276.23L264 274.73L228.56 229.44L245.05 229.64L261.38 233.52C266.92 253.85 301.38 267.52 313.83 267.26C326.28 267 316.14 270.95 317.3 274.65C318.46 278.35 321.88 275.58 319.34 281.12Z" fill="url(#paint0_linear_2168_16288)"/>
<path d="M268.42 331.16H218.19C216.5 317.27 215.19 306.22 214.81 301.3C214.81 300.93 214.75 300.6 214.73 300.3C214.73 299.68 214.66 299.21 214.66 298.91C214.66 298.91 212.14 296.39 215.11 294.54C215.25 294.46 215.41 294.37 215.58 294.29C215.58 294.29 211.89 292.44 212.35 288.75H211.88C209.51 288.86 198.48 289.29 185.88 288.55C183.88 288.44 181.88 288.29 179.81 288.12C171.92 287.42 163.88 286.2 157.32 284.12C142.56 279.42 141.46 253.67 142 240C142.09 237.59 142.23 235.55 142.35 234.07V234C142.49 232.39 142.6 231.46 142.6 231.46C142.6 231.46 220.25 227.76 221.6 227.76C224.141 228.421 226.642 229.229 229.09 230.18C232.09 231.25 235.68 232.58 239.37 234L239.58 234.08C244.58 236.01 249.71 238.08 253.65 239.89C255.42 240.7 256.94 241.44 258.11 242.09C266.43 246.71 268.28 255.95 268.28 274.44V274.94C268.28 279.4 268.28 289.02 268.34 301.32C268.35 310.17 268.39 320.45 268.42 331.16Z" fill="#1D1526"/>
<g style="mix-blend-mode:multiply">
<path d="M215.59 294.76C215.505 294.758 215.422 294.734 215.35 294.69C212.77 293.1 211.61 291.09 211.89 288.69C211.901 288.601 211.94 288.517 212 288.45C212 288.45 215.76 283.98 216.76 280.64C216.808 280.538 216.891 280.457 216.994 280.411C217.097 280.365 217.214 280.358 217.322 280.39C217.43 280.423 217.522 280.494 217.582 280.589C217.643 280.685 217.667 280.798 217.65 280.91C216.65 284.17 213.4 288.21 212.8 288.91C212.62 290.79 213.57 292.42 215.63 293.74C217.418 292.975 219.259 292.343 221.14 291.85C221.259 291.823 221.384 291.843 221.489 291.906C221.594 291.97 221.669 292.072 221.7 292.19C221.715 292.249 221.718 292.311 221.709 292.371C221.7 292.431 221.679 292.489 221.647 292.541C221.615 292.593 221.574 292.638 221.525 292.674C221.475 292.71 221.419 292.736 221.36 292.75C219.452 293.259 217.583 293.907 215.77 294.69C215.714 294.723 215.653 294.747 215.59 294.76Z" fill="#CCCCCC"/>
</g>
<path d="M199.87 54.9C173.53 59.06 146.73 80.78 145.8 81C135.4 89.78 119.92 137.84 116.92 156.33C113.92 174.82 114.14 215.49 122.23 218.26C130.32 221.03 235.92 218.26 235.92 218.26H301.55C301.55 218.26 291.15 143.85 282.83 116.12C274.51 88.39 266.66 80.31 263.65 78.23C253.107 70.2064 241.099 64.3195 228.3 60.9L199.87 54.9Z" fill="#FDB42B"/>
<path opacity="0.5" d="M167.52 143.86C167.52 159.58 188.67 179.68 202.52 182.22C202.52 182.22 186.29 181.01 185.52 180.89L162.52 177.66C162.7 176.04 160.52 175.66 160.52 175.66C161 173 164.52 151.37 167.52 143.86Z" fill="#D16809"/>
<path d="M83.2499 218.81H492.94C496.984 218.81 500.863 220.417 503.723 223.277C506.583 226.137 508.19 230.015 508.19 234.06H67.9999C67.9999 230.015 69.6066 226.137 72.4665 223.277C75.3264 220.417 79.2053 218.81 83.2499 218.81Z" fill="#AEAAD6"/>
<path d="M174.22 108C174.112 108.001 174.007 107.964 173.924 107.894C173.841 107.824 173.787 107.727 173.77 107.62C173.77 107.41 170.11 86.54 151.19 79.79C151.076 79.7471 150.983 79.6616 150.931 79.5516C150.878 79.4415 150.871 79.3155 150.91 79.2C150.965 79.0987 151.057 79.022 151.166 78.9849C151.275 78.9479 151.394 78.9533 151.5 79C170.95 85.94 174.65 107.33 174.68 107.55C174.69 107.61 174.688 107.671 174.674 107.73C174.661 107.789 174.635 107.845 174.6 107.894C174.565 107.943 174.52 107.985 174.468 108.017C174.417 108.049 174.36 108.07 174.3 108.08L174.22 108Z" fill="#D16809"/>
<path d="M223.9 182.91C210.84 183.14 175.63 180.08 163.1 177.22C163.023 176.728 162.784 176.276 162.422 175.934C162.06 175.592 161.595 175.379 161.1 175.33C161.51 172.09 164.1 153.28 168.63 142.66C168.654 142.604 168.667 142.544 168.668 142.483C168.669 142.422 168.658 142.362 168.636 142.305C168.614 142.249 168.581 142.197 168.538 142.153C168.496 142.109 168.446 142.074 168.39 142.05C168.334 142.026 168.274 142.013 168.213 142.012C168.152 142.01 168.092 142.021 168.035 142.044C167.978 142.066 167.927 142.099 167.883 142.141C167.839 142.184 167.804 142.234 167.78 142.29C163.04 153.29 160.47 172.91 160.15 175.43C156.164 177.145 152.427 179.388 149.04 182.1C148.993 182.139 148.954 182.186 148.926 182.24C148.898 182.293 148.88 182.352 148.875 182.413C148.869 182.473 148.875 182.534 148.893 182.592C148.911 182.65 148.941 182.703 148.98 182.75C149.022 182.801 149.076 182.843 149.136 182.87C149.197 182.898 149.263 182.912 149.33 182.91C149.438 182.912 149.544 182.877 149.63 182.81C152.981 180.125 156.681 177.908 160.63 176.22C160.814 176.199 161.001 176.216 161.179 176.269C161.357 176.322 161.522 176.411 161.665 176.53C161.808 176.648 161.925 176.794 162.01 176.959C162.095 177.124 162.146 177.305 162.16 177.49C161.79 178.16 159.77 181.81 157.89 186.12C157.842 186.233 157.841 186.36 157.886 186.474C157.931 186.588 158.018 186.68 158.13 186.73C158.193 186.74 158.257 186.74 158.32 186.73C158.409 186.727 158.495 186.699 158.57 186.65C158.644 186.6 158.703 186.531 158.74 186.45C160.47 182.45 162.32 179.08 162.86 178.09C175.03 180.86 208.36 183.81 222.44 183.81H223.87C223.993 183.807 224.11 183.757 224.196 183.669C224.282 183.581 224.33 183.463 224.33 183.34C224.319 183.23 224.27 183.127 224.192 183.048C224.113 182.97 224.01 182.921 223.9 182.91Z" fill="#D16809"/>
<path d="M272 114.36C271.997 114.239 271.948 114.123 271.862 114.038C271.777 113.952 271.661 113.903 271.54 113.9C271.479 113.9 271.42 113.912 271.364 113.935C271.308 113.958 271.257 113.992 271.215 114.035C271.172 114.077 271.138 114.128 271.115 114.184C271.092 114.24 271.08 114.3 271.08 114.36C270.862 116.124 270.287 117.825 269.39 119.36C269.211 112.625 268.694 105.903 267.84 99.22C267.825 99.098 267.763 98.9868 267.666 98.9108C267.57 98.8349 267.447 98.8004 267.325 98.815C267.203 98.8296 267.092 98.892 267.016 98.9886C266.94 99.0852 266.905 99.208 266.92 99.33C267.852 106.538 268.37 113.793 268.47 121.06C268.46 121.126 268.46 121.194 268.47 121.26C268.53 131.26 267.41 135.6 267.4 135.66C267.383 135.718 267.378 135.78 267.385 135.84C267.392 135.9 267.411 135.959 267.441 136.012C267.471 136.065 267.511 136.111 267.559 136.149C267.606 136.186 267.661 136.214 267.72 136.23H267.84C267.941 136.23 268.04 136.196 268.121 136.135C268.203 136.074 268.262 135.988 268.29 135.89C268.36 135.62 269.49 131.28 269.42 121.2C269.87 120.4 272 116.75 272 114.36Z" fill="#D16809"/>
<path d="M330.32 209.26H187.63C186.385 209.259 185.153 209.503 184.003 209.978C182.853 210.453 181.808 211.151 180.927 212.03C180.047 212.91 179.348 213.954 178.872 215.104C178.395 216.253 178.15 217.486 178.15 218.73H330.32C331.575 218.73 332.779 218.232 333.668 217.345C334.557 216.458 335.057 215.255 335.06 214C335.06 212.743 334.561 211.537 333.672 210.648C332.783 209.759 331.577 209.26 330.32 209.26Z" fill="#37307D"/>
<path d="M244.59 131.61H345.29C345.712 131.611 346.128 131.71 346.505 131.9C346.882 132.09 347.209 132.366 347.461 132.705C347.712 133.044 347.881 133.437 347.954 133.853C348.027 134.269 348.001 134.696 347.88 135.1L327 204.92C326.647 206.107 325.92 207.148 324.927 207.889C323.934 208.63 322.729 209.03 321.49 209.03H220.84C220.419 209.028 220.004 208.929 219.628 208.739C219.252 208.55 218.925 208.275 218.673 207.938C218.421 207.601 218.25 207.209 218.175 206.795C218.1 206.381 218.122 205.954 218.24 205.55L239.09 135.72C239.441 134.534 240.167 133.493 241.158 132.752C242.149 132.011 243.353 131.611 244.59 131.61Z" fill="#37307D"/>
<path d="M249.68 131.61H350.37C350.792 131.611 351.208 131.711 351.585 131.901C351.963 132.091 352.29 132.366 352.542 132.705C352.795 133.044 352.965 133.436 353.039 133.852C353.113 134.268 353.089 134.695 352.97 135.1L332.12 204.92C331.769 206.106 331.043 207.147 330.052 207.888C329.061 208.629 327.857 209.029 326.62 209.03H225.92C225.499 209.029 225.084 208.929 224.708 208.74C224.332 208.55 224.006 208.276 223.754 207.938C223.503 207.6 223.334 207.209 223.26 206.794C223.186 206.38 223.21 205.954 223.33 205.55L244.17 135.72C244.523 134.533 245.25 133.492 246.243 132.751C247.236 132.01 248.441 131.61 249.68 131.61Z" fill="#AEAAD6"/>
<path d="M213.72 58.72L212.36 57.54L199.87 54.9C198.868 55.067 197.929 55.4977 197.148 56.148C196.368 56.7983 195.775 57.6446 195.43 58.6L195.38 58.74C195.078 59.5116 194.83 60.3036 194.64 61.11C193.79 65.02 197.38 78.33 210.51 85.11C213.311 86.7077 216.449 87.6225 219.67 87.78C220.993 87.8327 222.311 87.5837 223.524 87.0518C224.736 86.5199 225.812 85.7191 226.67 84.71C227.663 83.4133 228.363 81.9166 228.722 80.3232C229.081 78.7297 229.091 77.0774 228.75 75.48C228.35 73.49 226.31 69.76 213.72 58.72Z" fill="#D16809"/>
<path d="M198.72 49.23C199.53 56.4 197.45 58.94 196.87 61.6C196.29 64.26 199.07 76.6 211.54 83.09C224.01 89.58 227.54 81.59 226.45 75.92C225.36 70.25 198.72 49.23 198.72 49.23Z" fill="#FCAF9D"/>
<path d="M239.39 42.19C240.39 46.69 241.47 53.74 240.31 57.19C239.15 60.64 237.54 67.7 237.77 71.05C238 74.4 235.11 76.6 227.95 77.41C220.79 78.22 211.2 75.1 206.95 69.78C202.7 64.46 202.95 63.66 201.75 58.69C201.045 55.6821 199.617 52.8915 197.59 50.56L190.78 33.62C188 29.8 187.54 10.05 194.47 12.13C194.01 7.13 201.52 -1.16 213.08 0.129999C224.64 1.42 232.46 7.06 238 10C243.54 12.94 246 16.12 245.17 18.32C244.34 20.52 242.74 21.09 242.62 21.56C242.74 25.56 240.2 35.65 240.2 35.65L239.39 42.19Z" fill="#1D1526"/>
<path d="M210.35 18.39C208.73 19.08 208.35 17.92 208.12 17.92C206.42 18.92 204.8 20 205.57 25.01C206.34 30.02 206.27 32.4 204.88 32.79C203.49 33.18 200.8 35.72 201.8 36.18C202.8 36.64 203.65 36.87 202.42 37.26C201.19 37.65 201.42 38.41 202.42 38.41C203.42 38.41 201.65 41.88 204.42 44.11C207.19 46.34 207.58 50.89 208.81 54.36C210.04 57.83 215.59 61.29 221.13 58.67C226.67 56.05 230.99 55.51 233.92 56.9C236.85 58.29 238.39 57.67 239.47 56.05C240.55 54.43 240.47 49.35 239.93 45.05C239.39 40.75 240.62 37.58 241.08 34.96C241.54 32.34 239.85 23 237.77 19.66C235.69 16.32 234.3 17 232.69 18.39C231.08 19.78 223.14 23.82 210.35 18.39Z" fill="#FCAF9D"/>
<path d="M218.34 44.96C219.097 44.96 219.71 43.8721 219.71 42.53C219.71 41.1879 219.097 40.1 218.34 40.1C217.583 40.1 216.97 41.1879 216.97 42.53C216.97 43.8721 217.583 44.96 218.34 44.96Z" fill="#1D1526"/>
<path d="M215.21 42.91C215.167 42.9231 215.122 42.9231 215.08 42.91C215.031 42.874 214.998 42.821 214.987 42.7617C214.976 42.7024 214.988 42.6411 215.02 42.59C216.27 40.75 217.4 39.81 218.48 39.7C218.905 39.6827 219.328 39.764 219.717 39.9375C220.106 40.1109 220.449 40.3719 220.72 40.7C220.742 40.7206 220.759 40.7454 220.771 40.7729C220.783 40.8004 220.789 40.83 220.789 40.86C220.789 40.89 220.783 40.9196 220.771 40.9471C220.759 40.9746 220.742 40.9994 220.72 41.02C220.674 41.0601 220.616 41.0822 220.555 41.0822C220.494 41.0822 220.435 41.0601 220.39 41.02C220.167 40.7439 219.883 40.5234 219.56 40.3758C219.237 40.2283 218.885 40.1579 218.53 40.17C217.59 40.26 216.53 41.17 215.4 42.86C215.374 42.8818 215.343 42.8977 215.31 42.9063C215.278 42.915 215.243 42.9162 215.21 42.91Z" fill="#1D1526"/>
<g style="mix-blend-mode:multiply">
<path d="M217.36 45.87C217.306 45.8588 217.257 45.8293 217.223 45.7865C217.188 45.7437 217.169 45.6902 217.169 45.635C217.169 45.5798 217.188 45.5263 217.223 45.4835C217.257 45.4407 217.306 45.4112 217.36 45.4C218.045 45.4495 218.732 45.3293 219.36 45.05C219.412 45.0204 219.473 45.0123 219.531 45.0272C219.589 45.0421 219.639 45.079 219.67 45.13C219.686 45.1548 219.698 45.1826 219.703 45.2118C219.708 45.241 219.708 45.271 219.701 45.2999C219.695 45.3289 219.682 45.3563 219.665 45.3803C219.647 45.4044 219.625 45.4247 219.6 45.44C218.904 45.7777 218.131 45.9261 217.36 45.87Z" fill="#EBA492"/>
</g>
<path d="M234.52 44.19C235.277 44.19 235.89 43.1021 235.89 41.76C235.89 40.4179 235.277 39.33 234.52 39.33C233.763 39.33 233.15 40.4179 233.15 41.76C233.15 43.1021 233.763 44.19 234.52 44.19Z" fill="#1D1526"/>
<path d="M231.39 42.14C231.348 42.1545 231.302 42.1545 231.26 42.14C231.234 42.1239 231.211 42.1025 231.194 42.0773C231.177 42.052 231.165 42.0234 231.159 41.9933C231.153 41.9631 231.154 41.9322 231.161 41.9023C231.168 41.8725 231.181 41.8444 231.2 41.82C232.44 39.98 233.58 39.04 234.66 38.93C235.084 38.912 235.506 38.9929 235.893 39.1665C236.28 39.3401 236.621 39.6015 236.89 39.93C236.912 39.9506 236.929 39.9754 236.941 40.0029C236.953 40.0304 236.959 40.06 236.959 40.09C236.959 40.12 236.953 40.1496 236.941 40.1771C236.929 40.2046 236.912 40.2294 236.89 40.25C236.844 40.2901 236.786 40.3122 236.725 40.3122C236.664 40.3122 236.605 40.2901 236.56 40.25C236.335 39.9731 236.05 39.7522 235.725 39.6046C235.4 39.4571 235.046 39.3871 234.69 39.4C233.76 39.49 232.69 40.4 231.57 42.09C231.518 42.1284 231.454 42.1462 231.39 42.14Z" fill="#1D1526"/>
<g style="mix-blend-mode:multiply">
<path d="M233.53 45.09C233.469 45.09 233.41 45.0658 233.367 45.0226C233.324 44.9795 233.3 44.921 233.3 44.86C233.302 44.7998 233.327 44.7427 233.37 44.7001C233.412 44.6575 233.47 44.6325 233.53 44.63C234.215 44.6816 234.903 44.5613 235.53 44.28C235.583 44.2499 235.646 44.2414 235.706 44.2563C235.765 44.2712 235.817 44.3083 235.85 44.36C235.866 44.3848 235.877 44.4126 235.883 44.4418C235.888 44.471 235.888 44.501 235.881 44.5299C235.874 44.5589 235.862 44.5863 235.845 44.6103C235.827 44.6344 235.805 44.6547 235.78 44.67C235.079 45.0016 234.303 45.1463 233.53 45.09Z" fill="#EBA492"/>
</g>
<g style="mix-blend-mode:multiply">
<path d="M224.41 56.63C224.051 56.6386 223.696 56.5502 223.383 56.3742C223.069 56.1983 222.809 55.9412 222.63 55.63C222.405 55.1835 222.306 54.6844 222.343 54.1859C222.38 53.6875 222.552 53.2085 222.84 52.8C222.856 52.7742 222.877 52.7519 222.902 52.7344C222.927 52.7169 222.955 52.7046 222.985 52.6981C223.015 52.6915 223.046 52.691 223.076 52.6965C223.106 52.702 223.134 52.7134 223.16 52.73C223.211 52.7612 223.248 52.8109 223.263 52.8688C223.278 52.9267 223.269 52.9881 223.24 53.04C222.994 53.3773 222.845 53.7751 222.808 54.1909C222.771 54.6066 222.847 55.0246 223.03 55.4C223.18 55.6463 223.394 55.8471 223.65 55.981C223.905 56.1148 224.192 56.1767 224.48 56.16C224.51 56.1571 224.54 56.1607 224.569 56.1706C224.597 56.1804 224.623 56.1964 224.645 56.2173C224.667 56.2381 224.684 56.2635 224.695 56.2916C224.706 56.3197 224.711 56.3498 224.71 56.38C224.711 56.4102 224.707 56.4404 224.696 56.4688C224.686 56.4972 224.67 56.5233 224.65 56.5456C224.629 56.5679 224.605 56.586 224.577 56.5987C224.55 56.6115 224.52 56.6187 224.49 56.62L224.41 56.63Z" fill="#EBA492"/>
</g>
<path d="M223.73 31.79C222.29 33.98 220.5 35.02 216.51 34.33C213.217 33.8672 209.869 34.6286 207.1 36.47C209.98 32.25 212.18 30.63 216.17 31.67C218.648 32.2874 221.234 32.3285 223.73 31.79Z" fill="#1D1526"/>
<path d="M231.07 32.42C232.28 33.93 233.61 34.79 236.38 34.1C239.15 33.41 240.54 34.79 240.54 34.79C239.68 31.85 239.79 31.56 231.07 32.42Z" fill="#1D1526"/>
<g style="mix-blend-mode:multiply">
<path d="M223.48 34C223.437 33.9974 223.396 33.9833 223.36 33.9592C223.324 33.9352 223.296 33.902 223.278 33.8632C223.259 33.8244 223.252 33.7813 223.255 33.7385C223.259 33.6958 223.275 33.6548 223.3 33.62C224.43 32.17 224.3 30.86 223.03 29.25C222.988 29.2071 222.965 29.1497 222.965 29.09C222.965 29.0303 222.988 28.9729 223.03 28.93C223.05 28.9082 223.075 28.8908 223.103 28.879C223.13 28.8671 223.16 28.861 223.19 28.861C223.22 28.861 223.249 28.8671 223.277 28.879C223.305 28.8908 223.329 28.9082 223.35 28.93C224.81 30.71 224.9 32.24 223.63 33.88C223.596 33.9364 223.542 33.9789 223.48 34Z" fill="#EBA492"/>
</g>
<path d="M236.72 61.86C234.87 59.16 229.67 62.99 226.72 62.37C215.34 59.98 218.88 64.12 219.36 66.14C219.98 68.74 220.88 71.35 223.14 70.92C226.2 70.32 227.76 69.53 230.92 70.3C234.08 71.07 237.66 63.61 236.72 61.86Z" fill="#FCAF9D"/>
<g style="mix-blend-mode:multiply">
<path d="M225.72 68.8C225.669 68.7986 225.619 68.7815 225.578 68.7511C225.537 68.7207 225.506 68.6785 225.49 68.63C225.474 68.5717 225.483 68.5096 225.512 68.4573C225.542 68.4049 225.592 68.3664 225.65 68.35C226.965 67.8796 228.385 67.786 229.75 68.08C229.779 68.0891 229.806 68.1038 229.829 68.1233C229.852 68.1429 229.871 68.1668 229.885 68.1938C229.899 68.2207 229.908 68.2502 229.91 68.2804C229.913 68.3107 229.909 68.3411 229.9 68.37C229.891 68.399 229.876 68.4258 229.856 68.4491C229.837 68.4723 229.813 68.4914 229.786 68.5054C229.759 68.5193 229.73 68.5278 229.699 68.5303C229.669 68.5328 229.639 68.5293 229.61 68.52C228.332 68.2681 227.01 68.3613 225.78 68.79L225.72 68.8Z" fill="#EBA492"/>
</g>
<path d="M205.42 17.08C205.384 17.0889 205.346 17.0889 205.31 17.08C202.179 15.4204 198.922 14.0094 195.57 12.86C195.541 12.8508 195.514 12.836 195.491 12.8165C195.468 12.7969 195.449 12.773 195.435 12.7461C195.407 12.6917 195.401 12.6283 195.42 12.57C195.438 12.5117 195.479 12.4631 195.534 12.4349C195.588 12.4068 195.651 12.4014 195.71 12.42C199.088 13.5816 202.371 15.0025 205.53 16.67C205.572 16.6973 205.604 16.7369 205.622 16.7833C205.64 16.8298 205.643 16.8808 205.631 16.9291C205.619 16.9775 205.592 17.021 205.555 17.0534C205.517 17.0858 205.469 17.1056 205.42 17.11V17.08Z" fill="#FCAF9D"/>
<path d="M206.84 33.44C206.804 33.4489 206.766 33.4489 206.73 33.44C206.73 33.44 205.58 32.55 200.88 31.04C200.851 31.0309 200.824 31.0162 200.801 30.9966C200.778 30.9771 200.758 30.9532 200.744 30.9262C200.731 30.8993 200.722 30.8698 200.72 30.8396C200.717 30.8093 200.721 30.7789 200.73 30.75C200.738 30.7202 200.752 30.6925 200.771 30.6684C200.79 30.6444 200.814 30.6247 200.842 30.6106C200.869 30.5964 200.899 30.5882 200.93 30.5864C200.96 30.5846 200.991 30.5892 201.02 30.6C205.76 32.1 206.9 33 207 33C207.027 33.0136 207.051 33.0326 207.07 33.0559C207.09 33.0792 207.104 33.1062 207.113 33.1353C207.121 33.1645 207.123 33.195 207.119 33.225C207.116 33.2551 207.105 33.284 207.09 33.31C207.068 33.3563 207.032 33.3942 206.987 33.4178C206.942 33.4413 206.89 33.4491 206.84 33.44Z" fill="#FCAF9D"/>
<path d="M206.46 35.44C206.424 35.4503 206.386 35.4503 206.35 35.44C206.35 35.44 205.2 34.56 200.5 33.04C200.47 33.0322 200.442 33.0182 200.418 32.9989C200.394 32.9797 200.375 32.9556 200.361 32.9283C200.346 32.901 200.338 32.871 200.336 32.8403C200.335 32.8096 200.339 32.7788 200.35 32.75C200.359 32.721 200.374 32.6942 200.393 32.6709C200.413 32.6477 200.437 32.6286 200.464 32.6146C200.491 32.6007 200.52 32.5922 200.55 32.5897C200.581 32.5872 200.611 32.5907 200.64 32.6C205.38 34.13 206.52 35.01 206.57 35.03C206.612 35.0573 206.644 35.0969 206.662 35.1433C206.68 35.1898 206.684 35.2408 206.672 35.2892C206.659 35.3375 206.633 35.381 206.595 35.4134C206.557 35.4458 206.51 35.4656 206.46 35.47V35.44Z" fill="#FCAF9D"/>
<path d="M226.71 42.15C226.631 42.0515 226.53 41.9724 226.416 41.9186C226.301 41.8649 226.176 41.838 226.05 41.84H211.47C211.269 41.8388 211.073 41.9082 210.918 42.0361C210.763 42.164 210.657 42.3423 210.62 42.54L209.16 50.29C209.141 50.413 209.149 50.5385 209.183 50.6582C209.217 50.7778 209.277 50.8887 209.357 50.9835C209.438 51.0783 209.538 51.1547 209.65 51.2076C209.763 51.2604 209.886 51.2885 210.01 51.29H224.59C224.791 51.2912 224.986 51.2218 225.142 51.0939C225.297 50.966 225.402 50.7877 225.44 50.59L226.25 46.28L226.37 45.68L226.9 42.85C226.92 42.7265 226.914 42.6001 226.881 42.4793C226.849 42.3584 226.79 42.2461 226.71 42.15ZM210 50.85C209.941 50.8497 209.882 50.8363 209.829 50.8108C209.776 50.7852 209.729 50.7481 209.691 50.7022C209.654 50.6563 209.627 50.6027 209.613 50.5453C209.599 50.4878 209.598 50.428 209.61 50.37L211.06 42.63C211.08 42.5382 211.13 42.4557 211.203 42.3959C211.275 42.3361 211.366 42.3023 211.46 42.3H226.04C226.1 42.2996 226.159 42.3129 226.212 42.3389C226.266 42.3649 226.313 42.4029 226.35 42.45C226.385 42.4964 226.411 42.5497 226.425 42.6066C226.439 42.6634 226.44 42.7225 226.43 42.78L225.83 46L225.71 46.63L225 50.52C224.98 50.6118 224.929 50.6943 224.857 50.7541C224.784 50.8139 224.694 50.8477 224.6 50.85H210Z" fill="#752624"/>
<path opacity="0.2" d="M227.12 42.15C227.038 42.0524 226.935 41.974 226.82 41.9204C226.704 41.8668 226.578 41.8394 226.45 41.84H211.87C211.669 41.8407 211.475 41.9108 211.32 42.0384C211.165 42.166 211.059 42.3432 211.02 42.54L209.57 50.29C209.548 50.4135 209.553 50.5404 209.586 50.6615C209.619 50.7826 209.678 50.895 209.759 50.9906C209.84 51.0862 209.942 51.1626 210.056 51.2144C210.17 51.2661 210.295 51.292 210.42 51.29H225C225.2 51.2908 225.394 51.221 225.547 51.093C225.701 50.965 225.805 50.7869 225.84 50.59L226.7 46L226.81 45.43L227.3 42.82C227.318 42.7019 227.311 42.5815 227.28 42.4663C227.249 42.351 227.194 42.2434 227.12 42.15Z" fill="white"/>
<path opacity="0.2" d="M244.5 42H232L231.5 42.5L230.5 46.5L231 48.5L232 51H243.5L244.5 44.5L245 42.5L244.5 42Z" fill="white"/>
<path d="M227.12 42.15C227.038 42.0524 226.935 41.974 226.82 41.9204C226.704 41.8668 226.578 41.8394 226.45 41.84H211.87C211.669 41.8407 211.475 41.9108 211.32 42.0384C211.165 42.166 211.059 42.3432 211.02 42.54L209.57 50.29C209.548 50.4135 209.553 50.5404 209.586 50.6615C209.619 50.7826 209.678 50.895 209.759 50.9906C209.84 51.0862 209.942 51.1626 210.056 51.2144C210.17 51.2661 210.295 51.292 210.42 51.29H225C225.2 51.2908 225.394 51.221 225.547 51.093C225.701 50.965 225.805 50.7869 225.84 50.59L226.7 46L226.81 45.43L227.3 42.82C227.318 42.7019 227.311 42.5815 227.28 42.4663C227.249 42.351 227.194 42.2434 227.12 42.15ZM210.42 50.85C210.36 50.852 210.3 50.8394 210.246 50.8133C210.192 50.7871 210.146 50.7483 210.11 50.7C210.071 50.6554 210.042 50.6026 210.027 50.5454C210.011 50.4882 210.009 50.4282 210.02 50.37L211.48 42.63C211.496 42.5381 211.544 42.4549 211.615 42.3946C211.687 42.3344 211.777 42.3009 211.87 42.3H226.45C226.51 42.2996 226.569 42.3129 226.622 42.3389C226.676 42.3649 226.723 42.4029 226.76 42.45C226.799 42.4946 226.828 42.5474 226.843 42.6046C226.859 42.6618 226.861 42.7218 226.85 42.78L226.29 45.78L226.18 46.39L225.39 50.56C225.374 50.6519 225.326 50.7351 225.255 50.7954C225.183 50.8556 225.093 50.8891 225 50.89L210.42 50.85Z" fill="#1D1526"/>
<path d="M242.62 51.34H232.2L231.76 50.88H242.62C242.713 50.8791 242.803 50.8456 242.874 50.7854C242.946 50.7251 242.994 50.6419 243.01 50.55L244.47 42.81C244.481 42.7518 244.479 42.6918 244.463 42.6346C244.447 42.5774 244.419 42.5245 244.38 42.48C244.346 42.4325 244.301 42.3941 244.248 42.3679C244.196 42.3418 244.138 42.3288 244.08 42.33H231.81C231.715 42.3305 231.624 42.3636 231.551 42.4237C231.478 42.4839 231.428 42.5673 231.41 42.66L230.59 47.05L230.38 45.65L230.96 42.57C230.997 42.3723 231.103 42.194 231.258 42.0661C231.413 41.9382 231.609 41.8688 231.81 41.87H244.08C244.206 41.8695 244.331 41.897 244.445 41.9506C244.559 42.0043 244.66 42.0826 244.74 42.18C244.82 42.2781 244.877 42.3925 244.908 42.5151C244.939 42.6378 244.943 42.7657 244.92 42.89L243.47 50.64C243.431 50.8368 243.325 51.014 243.17 51.1416C243.015 51.2692 242.821 51.3393 242.62 51.34Z" fill="#752624"/>
<path d="M243 51.31H232.17V50.85H243C243.094 50.8495 243.186 50.8164 243.259 50.7563C243.331 50.6961 243.381 50.6127 243.4 50.52L244.85 42.78C244.865 42.7227 244.865 42.6625 244.851 42.605C244.837 42.5474 244.809 42.4942 244.77 42.45C244.732 42.4045 244.684 42.3676 244.631 42.3418C244.577 42.3159 244.519 42.3017 244.46 42.3H232.21C232.117 42.3009 232.026 42.3344 231.955 42.3946C231.884 42.4549 231.836 42.5381 231.82 42.63L231 47L230.55 46.92L231.37 42.52C231.411 42.324 231.517 42.1479 231.672 42.0206C231.826 41.8934 232.02 41.8226 232.22 41.82H244.49C244.614 41.8215 244.737 41.8496 244.849 41.9024C244.962 41.9553 245.062 42.0317 245.142 42.1265C245.223 42.2213 245.282 42.3322 245.316 42.4518C245.35 42.5715 245.358 42.697 245.34 42.82L243.88 50.57C243.852 50.7811 243.747 50.9743 243.584 51.1114C243.421 51.2484 243.213 51.3193 243 51.31Z" fill="#1D1526"/>
<path d="M225.29 46.92C225.242 46.9193 225.196 46.904 225.158 46.8762C225.119 46.8483 225.091 46.8092 225.075 46.7643C225.06 46.7194 225.059 46.6709 225.072 46.6254C225.086 46.5798 225.113 46.5395 225.15 46.51C227.15 44.93 228.61 44.85 229.43 45.06C229.801 45.1584 230.143 45.3415 230.432 45.5948C230.72 45.8481 230.945 46.1648 231.09 46.52C231.103 46.5481 231.11 46.5786 231.111 46.6097C231.113 46.6407 231.107 46.6717 231.096 46.7006C231.085 46.7296 231.068 46.756 231.046 46.7782C231.024 46.8005 230.999 46.8181 230.97 46.83C230.942 46.843 230.913 46.8503 230.882 46.8512C230.852 46.8522 230.822 46.8469 230.794 46.8356C230.765 46.8243 230.74 46.8074 230.719 46.7857C230.697 46.7641 230.681 46.7383 230.67 46.71C230.554 46.417 230.37 46.1555 230.134 45.947C229.897 45.7384 229.615 45.5887 229.31 45.51C228.31 45.25 226.92 45.73 225.43 46.88C225.389 46.9081 225.34 46.9222 225.29 46.92Z" fill="#1D1526"/>
<path d="M233.05 52.32C232.428 51.3545 231.934 50.3125 231.58 49.22C231.206 48.0283 230.915 46.812 230.71 45.58C230.572 44.5478 230.296 43.5387 229.89 42.58C229.5 41.79 229.78 41.15 230.25 40.08C230.699 39.0897 231.05 38.0582 231.3 37C231.309 36.9394 231.296 36.8773 231.263 36.8257C231.23 36.774 231.179 36.7364 231.12 36.72C231.059 36.7104 230.997 36.7234 230.946 36.7566C230.894 36.7898 230.856 36.8409 230.84 36.9C230.615 37.933 230.28 38.9388 229.84 39.9C229.36 41.01 229.01 41.81 229.5 42.79C229.878 43.7243 230.14 44.7016 230.28 45.7C230.483 46.953 230.778 48.1895 231.16 49.4C231.528 50.5253 232.035 51.6003 232.67 52.6C232.98 53.09 233.2 53.45 233.13 53.6C232.96 54.06 230.13 55.07 226.59 54.9C226.56 54.8987 226.529 54.9033 226.501 54.9136C226.473 54.924 226.447 54.9398 226.424 54.9602C226.402 54.9807 226.384 55.0053 226.371 55.0327C226.358 55.0601 226.351 55.0898 226.35 55.12C226.352 55.1797 226.375 55.2367 226.415 55.2807C226.456 55.3247 226.511 55.3529 226.57 55.36H227.38C228.948 55.3727 230.508 55.1502 232.01 54.7C232.63 55.1 232.5 55.56 232.49 55.61C232.471 55.667 232.474 55.7294 232.501 55.7836C232.527 55.8378 232.573 55.8796 232.63 55.9H232.71C232.758 55.8987 232.805 55.8827 232.845 55.8542C232.884 55.8256 232.914 55.7858 232.93 55.74C232.984 55.5141 232.975 55.2775 232.903 55.0567C232.83 54.8359 232.698 54.6397 232.52 54.49C232.933 54.3577 233.286 54.0854 233.52 53.72C233.69 53.36 233.43 53 233.05 52.32Z" fill="#1D1526"/>
<path d="M197.45 37.49L210.39 42.73L209.89 45.5L197.91 38.72L197.45 37.49Z" fill="#752624"/>
<path d="M197.56 50.74C202 46.89 198.91 32.56 191.38 32.25C187.46 32.09 186.38 37.77 187.24 42.88C188.06 47.6 191.81 52 197.56 50.74Z" fill="#FCAF9D"/>
<g style="mix-blend-mode:multiply">
<path d="M195.31 49.7H195.22C192.32 48.55 191.86 46.83 191.84 45.92C191.839 45.3026 192.017 44.6981 192.352 44.1797C192.687 43.6614 193.166 43.2516 193.73 43C194.215 42.7864 194.749 42.7054 195.276 42.7651C195.803 42.8248 196.305 43.0232 196.73 43.34C196.46 40 194.73 36.71 192.63 35.71C192.171 35.4684 191.651 35.368 191.135 35.4214C190.619 35.4748 190.13 35.6796 189.73 36.01C189.706 36.029 189.679 36.0428 189.649 36.0506C189.62 36.0583 189.589 36.0599 189.559 36.0552C189.529 36.0505 189.5 36.0396 189.475 36.0233C189.449 36.0069 189.427 35.9853 189.41 35.96C189.368 35.9171 189.345 35.8597 189.345 35.8C189.345 35.7403 189.368 35.6829 189.41 35.64C189.88 35.2617 190.449 35.0281 191.049 34.9677C191.65 34.9074 192.254 35.0228 192.79 35.3C195.17 36.43 197.06 40.11 197.18 43.85C197.181 43.8956 197.168 43.9404 197.144 43.9788C197.119 44.0172 197.084 44.0474 197.042 44.0657C197 44.0839 196.954 44.0893 196.909 44.0811C196.864 44.073 196.823 44.0517 196.79 44.02C196.423 43.6371 195.948 43.3748 195.428 43.2676C194.909 43.1605 194.369 43.2136 193.88 43.42C193.396 43.6395 192.986 43.9941 192.698 44.4411C192.411 44.8881 192.259 45.4086 192.26 45.94C192.26 46.74 192.7 48.24 195.36 49.3C195.415 49.3242 195.459 49.3692 195.482 49.4254C195.504 49.4815 195.503 49.5443 195.48 49.6C195.461 49.6282 195.436 49.6519 195.406 49.6691C195.377 49.6864 195.344 49.697 195.31 49.7Z" fill="#EBA492"/>
</g>
<g style="mix-blend-mode:multiply">
<path d="M235 62.57C235.13 62.34 235.26 62.11 235.39 61.86C230.39 63.5605 225.008 63.793 219.88 62.53C220.03 62.79 220.19 63.01 220.35 63.24C225.206 64.3222 230.263 64.0909 235 62.57Z" fill="#EBA492"/>
</g>
<path d="M220.55 63.2C225.268 64.1999 230.159 64.0179 234.79 62.67C231.95 67.52 227.79 66.99 227.79 66.99C226.359 67.0365 224.94 66.7119 223.671 66.0478C222.402 65.3837 221.327 64.4026 220.55 63.2Z" fill="white"/>
<path d="M460.07 80.62H343.3V184.76H460.07V80.62Z" fill="#2A2135"/>
<path d="M481.17 80.62H348.38V184.76H481.17V80.62Z" fill="#504EA0"/>
<path d="M447.82 143.4H410.39V183.84H447.82V143.4Z" fill="#37307D"/>
<path d="M443.67 183.84H414.32V207.53H443.67V183.84Z" fill="#2A2135"/>
<path d="M450.06 207.56H446.44V183.84H417.09V207.56H386C383.016 207.56 380.155 208.745 378.045 210.855C375.935 212.965 374.75 215.826 374.75 218.81H461.3C461.3 215.828 460.116 212.968 458.008 210.859C455.901 208.749 453.042 207.563 450.06 207.56Z" fill="#37307D"/>
<path d="M414.55 143.4H410.39V183.84H414.55V143.4Z" fill="#2A2135"/>
<path d="M404.31 173.13H384.51V180.06H404.31V173.13Z" fill="#2A2135"/>
<path d="M388.13 176.6C388.13 176.822 388.064 177.038 387.941 177.222C387.818 177.406 387.643 177.55 387.438 177.635C387.234 177.72 387.009 177.742 386.791 177.698C386.574 177.655 386.375 177.549 386.218 177.392C386.061 177.235 385.955 177.036 385.911 176.818C385.868 176.601 385.89 176.376 385.975 176.171C386.06 175.967 386.203 175.792 386.388 175.669C386.572 175.546 386.788 175.48 387.01 175.48C387.307 175.48 387.592 175.598 387.802 175.808C388.012 176.018 388.13 176.303 388.13 176.6Z" fill="#FC1264"/>
<path d="M401.8 177.72C402.418 177.72 402.92 177.219 402.92 176.6C402.92 175.981 402.418 175.48 401.8 175.48C401.181 175.48 400.68 175.981 400.68 176.6C400.68 177.219 401.181 177.72 401.8 177.72Z" fill="#25CDE3"/>
<g style="mix-blend-mode:multiply">
<path d="M307.09 282.13C307.016 282.129 306.943 282.108 306.88 282.07C306.88 282.07 304.56 280.88 299.35 280.43C299.286 280.424 299.223 280.405 299.166 280.374C299.11 280.343 299.06 280.301 299.02 280.25C298.568 279.632 298.324 278.886 298.324 278.12C298.324 277.354 298.568 276.608 299.02 275.99C300.38 274.268 301.857 272.641 303.44 271.12C303.539 271.058 303.659 271.037 303.774 271.06C303.889 271.083 303.99 271.15 304.058 271.245C304.126 271.341 304.154 271.459 304.138 271.575C304.122 271.691 304.061 271.797 303.97 271.87C302.454 273.332 301.044 274.899 299.75 276.56C299.428 276.99 299.247 277.509 299.23 278.046C299.214 278.583 299.364 279.111 299.66 279.56C304.92 280.04 307.22 281.23 307.31 281.29C307.403 281.337 307.477 281.415 307.52 281.51C307.564 281.605 307.573 281.712 307.548 281.813C307.522 281.914 307.463 282.004 307.38 282.067C307.296 282.13 307.194 282.163 307.09 282.16V282.13Z" fill="#CCCCCC"/>
</g>
<path d="M187.67 306L187.21 301.36L187.12 300.47L185.93 288.65L181 239.87L180.42 234.06V234H92.8799V234.08L84.95 331.18H90.95L96.67 261.24L114.75 240H155.87L176.77 257.78L179.84 288.15L181.08 300.43L181.17 301.29L181.64 305.96L184.18 331.14H190.18L187.67 306ZM97.43 252.15L98.43 239.99H107.79L97.43 252.15ZM164.07 240H175L176 250.15L164.07 240Z" fill="#504EA0"/>
<path d="M176.94 239.88H486.59L485.89 233.98H176.25L176.94 239.88Z" fill="#504EA0"/>
<path d="M411.31 178.68H404.61C404.269 178.683 403.931 178.618 403.615 178.49C403.299 178.361 403.012 178.172 402.769 177.932C402.527 177.692 402.334 177.407 402.202 177.093C402.07 176.778 402.001 176.441 402 176.1C402 175.416 402.272 174.76 402.756 174.276C403.24 173.792 403.896 173.52 404.58 173.52H411.28C411.619 173.519 411.955 173.585 412.269 173.714C412.583 173.843 412.867 174.033 413.107 174.273C413.347 174.513 413.537 174.798 413.666 175.111C413.795 175.425 413.861 175.761 413.86 176.1C413.86 176.779 413.592 177.431 413.115 177.914C412.638 178.397 411.989 178.672 411.31 178.68Z" fill="#AEAAD6"/>
<path d="M487.1 292V331.21H485.25V292C485.242 286.25 482.954 280.738 478.888 276.672C474.822 272.606 469.31 270.318 463.56 270.31C460.464 270.309 457.398 269.697 454.539 268.511C451.679 267.325 449.081 265.587 446.893 263.396C444.705 261.205 442.97 258.605 441.787 255.744C440.605 252.882 439.997 249.816 440 246.72V208.41C440 208.11 440 207.82 440 207.52C439.808 199.075 436.557 190.988 430.85 184.76C430.57 184.45 430.28 184.14 429.98 183.84L429.73 183.58C425.696 179.522 420.25 177.179 414.53 177.04C414.31 177.04 414.1 177.04 413.88 177.04H413.71C413.499 177.002 413.308 176.891 413.171 176.727C413.034 176.562 412.959 176.354 412.96 176.14C412.959 175.924 413.033 175.715 413.17 175.549C413.307 175.383 413.498 175.27 413.71 175.23H413.88C414.1 175.23 414.31 175.23 414.53 175.23C420.744 175.366 426.662 177.908 431.04 182.32C431.547 182.827 432.037 183.347 432.51 183.88C432.78 184.18 433.05 184.49 433.31 184.8C438.663 191.194 441.676 199.223 441.85 207.56C441.85 207.85 441.85 208.15 441.85 208.45V246.76C441.855 252.511 444.142 258.025 448.209 262.091C452.275 266.158 457.789 268.445 463.54 268.45C467.92 268.461 472.21 269.689 475.933 271.997C479.655 274.305 482.663 277.602 484.62 281.52C486.255 284.771 487.105 288.361 487.1 292Z" fill="#25CDE3"/>
<path d="M480.17 329V331.17H478.32V329C478.312 321.701 475.409 314.703 470.248 309.542C465.087 304.381 458.089 301.478 450.79 301.47C442.998 301.462 435.527 298.363 430.017 292.853C424.507 287.343 421.408 279.872 421.4 272.08V249.29C421.4 246.17 421.283 243.07 421.05 239.99C421.055 239.95 421.055 239.91 421.05 239.87C420.91 237.87 420.71 235.98 420.47 234.06C420.476 234.034 420.476 234.006 420.47 233.98C419.835 228.867 418.873 223.8 417.59 218.81C416.623 214.997 415.467 211.247 414.12 207.56C411.229 199.592 407.508 191.95 403.02 184.76C402.02 183.17 401.02 181.61 399.94 180.06C399.43 179.31 398.94 178.56 398.37 177.82C398.22 177.6 398.06 177.39 397.91 177.18C397.767 176.982 397.708 176.735 397.746 176.494C397.783 176.253 397.914 176.036 398.11 175.89C398.224 175.811 398.354 175.756 398.49 175.73C398.66 175.695 398.837 175.71 398.999 175.774C399.161 175.838 399.3 175.948 399.4 176.09C400.347 177.423 401.273 178.757 402.18 180.09C403.18 181.64 404.18 183.2 405.18 184.79C408.727 190.582 411.784 196.66 414.32 202.96C414.94 204.48 415.52 206.01 416.06 207.55C417.38 211.24 418.52 215 419.47 218.8C420.744 223.801 421.696 228.878 422.32 234C422.32 234 422.32 234.06 422.32 234.08C422.55 236.01 422.74 237.94 422.89 239.89C422.89 239.89 422.89 239.97 422.89 240.01C423.117 243.09 423.23 246.19 423.23 249.31V272.09C423.238 279.392 426.142 286.392 431.305 291.555C436.468 296.718 443.468 299.622 450.77 299.63C458.561 299.633 466.033 302.727 471.545 308.233C477.058 313.74 480.159 321.209 480.17 329Z" fill="#FC1264"/>
<path d="M396.06 174.06H389.36C387.935 174.06 386.78 175.215 386.78 176.64C386.78 178.065 387.935 179.22 389.36 179.22H396.06C397.485 179.22 398.64 178.065 398.64 176.64C398.64 175.215 397.485 174.06 396.06 174.06Z" fill="#AEAAD6"/>
<path d="M309.75 167.89L310.64 168.77L309.75 167.89Z" fill="#25CDE3"/>
<path d="M281 154.8L282.28 156.11L281 154.8Z" fill="#FC1264"/>
<path d="M291.47 158.86L285.32 163.58L286.53 165.32L292.68 160.6C294.18 159.45 296.05 159.42 296.93 160.53L297.93 161.94L300.17 160.22L299.17 158.78C297.65 156.73 294.21 156.76 291.47 158.86Z" fill="white"/>
<path d="M299.67 169.27L299.34 168.81L295.72 163.7L295.4 163.24C295.062 162.91 294.608 162.725 294.135 162.725C293.662 162.725 293.208 162.91 292.87 163.24L292.27 163.7L285.54 168.81L284.94 169.27C284.525 169.528 284.219 169.928 284.079 170.396C283.939 170.864 283.975 171.367 284.18 171.81L284.51 172.27L288.13 177.37L288.45 177.83C288.618 177.998 288.818 178.131 289.037 178.222C289.257 178.313 289.492 178.36 289.73 178.36C289.968 178.36 290.203 178.313 290.423 178.222C290.642 178.131 290.842 177.998 291.01 177.83L291.62 177.42L294.9 174.91L298.34 172.27L298.94 171.81C299.35 171.548 299.65 171.145 299.784 170.678C299.919 170.21 299.878 169.71 299.67 169.27ZM294.47 172.52L290.35 175.68L286.75 170.55L293.27 165.55L293.46 165.41L297.07 170.51L294.47 172.52Z" fill="white"/>
<path d="M291.09 180.5C289.58 181.66 287.72 181.68 286.84 180.58L285.84 179.14L283.56 180.89L284.56 182.32C286.12 184.37 289.56 184.32 292.31 182.22L298.49 177.48L297.27 175.76L291.09 180.5Z" fill="white"/>
<path d="M281.23 172.71C280.41 171.55 280.94 169.71 282.41 168.5L284.28 167.07L283 165.32L281.13 166.76C278.43 168.91 277.44 172.32 278.95 174.42L282.29 179.14L284.53 177.42L281.23 172.71Z" fill="white"/>
<path d="M304.83 166.66L301.49 161.94L299.25 163.65L302.59 168.37C303.41 169.53 302.89 171.37 301.42 172.58L299.57 174L300.79 175.72L302.66 174.29C305.34 172.17 306.32 168.78 304.83 166.66Z" fill="white"/>
</g>
<defs>
<linearGradient id="paint0_linear_2168_16288" x1="228.52" y1="280.3" x2="320.25" y2="280.3" gradientUnits="userSpaceOnUse">
<stop stop-color="white"/>
<stop offset="1" stop-color="#1D2D20"/>
</linearGradient>
<clipPath id="clip0_2168_16288">
<rect width="576" height="332" fill="white" transform="translate(-0.000610352)"/>
</clipPath>
</defs>
</svg>
